<?xml version="1.0" encoding="UTF-8" standalone="no"?>
<svg
   xmlns:dc="http://purl.org/dc/elements/1.1/"
   xmlns:cc="http://creativecommons.org/ns#"
   xmlns:rdf="http://www.w3.org/1999/02/22-rdf-syntax-ns#"
   xmlns:svg="http://www.w3.org/2000/svg"
   xmlns="http://www.w3.org/2000/svg"
   xmlns:sodipodi="http://sodipodi.sourceforge.net/DTD/sodipodi-0.dtd"
   xmlns:inkscape="http://www.inkscape.org/namespaces/inkscape"
   width="80"
   height="80.267021"
   viewBox="0 0 80 80.267021"
   fill="none"
   version="1.1"
   id="svg12"
   sodipodi:docname="icons_zahlung.svg"
   inkscape:version="1.0 (4035a4fb49, 2020-05-01)">
  <metadata
     id="metadata18">
    <rdf:RDF>
      <cc:Work
         rdf:about="">
        <dc:format>image/svg+xml</dc:format>
        <dc:type
           rdf:resource="http://purl.org/dc/dcmitype/StillImage" />
        <dc:title></dc:title>
      </cc:Work>
    </rdf:RDF>
  </metadata>
  <defs
     id="defs16">
    <inkscape:path-effect
       effect="fillet_chamfer"
       id="path-effect1242"
       is_visible="true"
       lpeversion="1"
       satellites_param="F,0,0,1,0,0,0,1 @ F,0,1,1,0,50,0,1 @ F,0,0,1,0,50,0,1 @ F,0,0,1,0,0,0,1"
       unit="px"
       method="auto"
       mode="F"
       radius="0"
       chamfer_steps="1"
       flexible="false"
       use_knot_distance="true"
       apply_no_radius="true"
       apply_with_radius="true"
       only_selected="false"
       hide_knots="false" />
  </defs>
  <sodipodi:namedview
     fit-margin-bottom="0"
     fit-margin-right="0"
     fit-margin-left="0"
     fit-margin-top="0"
     inkscape:snap-global="true"
     inkscape:guide-bbox="true"
     showguides="true"
     inkscape:bbox-nodes="true"
     inkscape:snap-smooth-nodes="true"
     inkscape:snap-intersection-paths="true"
     inkscape:snap-bbox-midpoints="true"
     inkscape:snap-bbox-edge-midpoints="true"
     inkscape:bbox-paths="true"
     inkscape:object-paths="true"
     inkscape:snap-bbox="true"
     inkscape:document-rotation="0"
     pagecolor="#ffffff"
     bordercolor="#666666"
     borderopacity="1"
     objecttolerance="10"
     gridtolerance="10"
     guidetolerance="10"
     inkscape:pageopacity="0"
     inkscape:pageshadow="2"
     inkscape:window-width="1920"
     inkscape:window-height="1017"
     id="namedview14"
     showgrid="false"
     inkscape:zoom="1.7914234"
     inkscape:cx="40.805888"
     inkscape:cy="55.534173"
     inkscape:window-x="-8"
     inkscape:window-y="-8"
     inkscape:window-maximized="1"
     inkscape:current-layer="svg12"
     inkscape:snap-nodes="true"
     inkscape:snap-others="false" />
  <g
     transform="matrix(0.0533777,0,0,0.0533777,737.3551,-192.12404)"
     id="g77">
    <path
       id="path1141"
       style="fill:#ecdbc1;fill-opacity:1;stroke:none;stroke-width:10;stroke-linecap:butt;stroke-linejoin:miter;stroke-miterlimit:4;stroke-dasharray:none;stroke-opacity:1"
       sodipodi:type="inkscape:offset"
       inkscape:radius="115.30507"
       inkscape:original="M -12743.072 -1402.5645 C -12933.925 -1400.9536 -13129.207 -1328.5898 -13129.207 -1328.5898 C -13739.172 -1114.5266 -13405.419 -449.32003 -13228.184 -255.97266 C -13050.949 -62.625289 -12850.694 -147.79004 -12811.564 -150.0918 C -12772.434 -152.39355 -12411.061 -223.74749 -12268.352 -506.86328 C -12125.643 -789.97907 -12275.257 -1155.9593 -12475.51 -1326.2891 C -12544.347 -1384.8399 -12643.102 -1403.4082 -12743.072 -1402.5645 z "
       transform="translate(-218.57419,5117.2319)"
       d="m -12744.045,-1517.8652 c -219.332,1.8512 -425.226,81.1543 -425.226,81.1543 l 1.882,-0.6778 c -173.198,60.7829 -294.608,162.1566 -360.925,284.5996 -66.318,122.4431 -76.819,258.09439 -59.848,383.71293 33.941,251.23707 166.216,472.36511 274.98,591.01758 108.933,118.835871 240.355,160.247262 341.227,163.634762 50.436,1.69375 93.75,-4.617824 125.83,-10.888672 32.08,-6.270848 67.404,-11.207477 41.332,-9.673828 34.259,-2.015216 57.972,-7.872188 105.104,-20.826172 47.131,-12.953984 106.405,-32.938708 170.214,-63.13867 127.619,-60.39993 276.876,-162.99812 364.086,-336.01172 87.634,-173.85326 83.536,-367.50259 32.481,-537.13867 -51.056,-169.63604 -147.518,-319.62824 -267.895,-422.01754 -101.129,-86.0181 -228.355,-104.7157 -343.242,-103.7461 z" />
    <path
       style="fill:none;stroke:#666666;stroke-width:10;stroke-linecap:butt;stroke-linejoin:miter;stroke-miterlimit:4;stroke-dasharray:none;stroke-opacity:1"
       d="m -13331.761,3762.677 c 0,0 453.445,-168.028 653.698,2.3018 200.253,170.3298 349.867,536.3088 207.158,819.4246 -142.709,283.1158 -504.084,354.4701 -543.214,356.7719 -39.13,2.3018 -239.383,87.4667 -416.618,-105.8807 -177.235,-193.3474 -510.989,-858.5544 98.976,-1072.6176 z"
       id="path1180" />
    <g
       transform="translate(-8361.8095,638.48499)"
       id="g1240">
      <path
         id="path1224"
         d="m -4403.1534,3899.0911 v 93.647 c 0,17.24 -18.1374,31.2157 -40.511,31.2157 h -486.1313 c -44.7471,0 -81.022,-27.9514 -81.022,-62.4313 v -295.178"
         style="stroke:#000000;stroke-width:30;stroke-linecap:round;stroke-linejoin:round;stroke-miterlimit:4;stroke-dasharray:none"
         sodipodi:nodetypes="cssssc" />
      <path
         id="path1226"
         d="m -5010.8177,3649.3654 h 567.1533 c 22.3736,0 40.511,13.9757 40.511,31.2157 v 93.6471"
         style="stroke:#000000;stroke-width:30;stroke-linecap:round;stroke-linejoin:round;stroke-miterlimit:4;stroke-dasharray:none"
         sodipodi:nodetypes="cssc" />
      <path
         d="m -4362.6426,3774.2282 v 124.8628 h -108.3335 c -44.7471,0 -68.8149,-27.9515 -68.8149,-62.4314 0,-34.4799 24.0678,-62.4314 68.8149,-62.4314 h 108.3335"
         id="path1228"
         style="stroke:#000000;stroke-width:30;stroke-linecap:round;stroke-linejoin:round;stroke-miterlimit:4;stroke-dasharray:none"
         sodipodi:nodetypes="ccsssc" />
      <path
         sodipodi:nodetypes="cssc"
         style="stroke:#000000;stroke-width:30;stroke-linecap:round;stroke-linejoin:round;stroke-miterlimit:4;stroke-dasharray:none"
         d="m -4737.4187,3571.934 h -232.888 c -22.3736,0 -40.511,13.9757 -40.511,31.2157 v 93.6471"
         id="path1230" />
      <path
         style="fill:none;stroke:#000000;stroke-width:30;stroke-linecap:round;stroke-linejoin:round;stroke-miterlimit:4;stroke-dasharray:none;stroke-opacity:1"
         d="m -4782.1237,3649.3654 158.7324,-274.9325 a 49.999994,49.999994 165.00001 0 1 68.3013,-18.3013 l 167.2418,96.5572 a 50.000017,50.000017 75.000002 0 1 18.3013,68.3013 l -74.1175,128.3753 z"
         id="path1232"
         inkscape:path-effect="#path-effect1242"
         inkscape:original-d="m -4782.1237,3649.3654 183.7324,-318.2338 253.8444,146.5572 -99.1175,171.6766 z" />
      <path
         style="fill:#e9c6af;fill-opacity:1;stroke:#000000;stroke-width:30;stroke-linecap:butt;stroke-linejoin:miter;stroke-miterlimit:4;stroke-dasharray:none;stroke-opacity:1"
         d="m -4702.364,3649.3654 163.7924,-283.6968"
         id="path1234" />
      <path
         id="path1236"
         d="m -4635.633,3649.3654 147.1097,-254.8015"
         style="fill:#e9c6af;fill-opacity:1;stroke:#000000;stroke-width:30;stroke-linecap:butt;stroke-linejoin:miter;stroke-miterlimit:4;stroke-dasharray:none;stroke-opacity:1"
         sodipodi:nodetypes="cc" />
      <path
         style="fill:none;stroke:#000000;stroke-width:28.1685;stroke-linecap:butt;stroke-linejoin:round;stroke-miterlimit:4;stroke-dasharray:none;stroke-opacity:1"
         d="m -4494.9205,3522.314 28.9632,-50.1659 41.2037,23.7889 -27.8121,48.1722 z"
         id="path1238"
         sodipodi:nodetypes="ccccc" />
    </g>
  </g>
</svg>
