<?xml version="1.0" encoding="UTF-8"?>
<svg width="300" height="73.423" version="1.1" viewBox="0 0 79.374 19.427" xmlns="http://www.w3.org/2000/svg">
 <g transform="translate(-16.083 -181.65)">
  <g transform="matrix(.75002 0 0 .75002 4.0204 45.409)">
   <path d="m18.185 181.65c-0.0437 0.14192-0.23362 1.2704-0.72393 2.0752-0.45236 0.7425-1.3682 2.5396-1.3783 4.6827-0.0129 2.7446 0.76924 5.5707 2.1133 8.3723 1.3731 2.8619 3.8374 5.7545 5.9035 7.5963 1.5577 1.3886 2.5928 1.9776 3.9031 2.679 0.06153 0.0329 0.12743 0.0633 0.1944 0.0922-1.4592-2.4777-3.3093-6-4.9602-9.974-1.8952-4.5623-2.9428-8.2444-3.6995-10.806 0.72634 2.4588 2.1041 6.2661 4.21 10.575 2.0341 4.1624 4.0677 7.4634 5.6145 9.9835 0.03527-0.39994 0.1988-0.79582 0.23097-0.95131 0.03106-0.15011 0.12576-1.2424 0.07116-2.6457-0.05461-1.4032-0.41584-3.1828-1.0412-5.7091-0.62532-2.5264-2.363-5.8892-3.232-7.4023-0.86903-1.513-2.9315-4.2489-3.9134-5.4201-0.98194-1.1712-3.2925-3.1481-3.2925-3.1481z" fill="#9dbc3b"/>
   <path d="m40.971 196.67c-1.6382 0.041-3.1463 0.62261-4.2597 1.3171-2.5383 1.5833-5.2766 4.7315-5.5891 7.2122-0.04293 0.34087-0.01911 0.96745-0.3395 1.3409-0.07287 0.0849-0.09755 0.17677-0.09422 0.26754 1.5407-1.0196 3.7106-2.3918 6.111-4.2064 2.4814-1.8758 4.388-3.6295 5.5585-4.8739-1.2523 1.3314-2.8342 3.0647-5.2782 5.217-1.9951 1.757-4.0268 3.2983-5.4913 4.3142 0.09686-0.0207 0.18418-0.0342 0.23217-0.0246 1.7227 0.34099 3.2782 0.49878 4.6012-0.0231 3.1475-1.2415 6.2151-3.9184 6.9296-7.2568 0.27586-1.2889 0.26156-1.5846-0.10416-2.6397-0.065-0.18751-0.04492-0.53192-0.04492-0.53192s-0.31488 0.0956-0.55974 0.0425c-0.5652-0.12238-1.1256-0.16872-1.6717-0.15505z" fill="#749b3a"/>
   <path d="m36.302 186.92c-1.393 0.0191-2.9031 0.89344-3.9762 2.3022-1.684 2.2106-1.8005 5.0448-0.26039 6.3305 1.5401 1.2858 4.1538 0.5361 5.8379-1.6745 1.684-2.2106 1.8005-5.0448 0.26039-6.3305-0.50358-0.42052-1.1469-0.63744-1.8617-0.62772zm-0.30889 0.86704c0.6962 0.0308 0.87928 0.5953-0.32758 1.1294-0.73476 0.32519-1.5015 1.3998-1.5015 1.3998-0.47412 0.47817-1.0275-0.0454-0.76527-0.65595 0.26223-0.6106 0.93677-1.4963 2.0414-1.8021 0.20457-0.0566 0.39232-0.0783 0.55298-0.0712z" fill="#676a30"/>
   <g stroke-width=".32939" aria-label="INDO-MED">
    <path d="m51.853 200.32q0.33869 0 0.57317-0.23448 0.24751-0.2475 0.26053-0.5862v-7.2298q-0.01303-0.33869-0.26053-0.57317-0.23448-0.23448-0.57317-0.23448h-0.16935v-0.13027h2.8528v0.13027h-0.16935q-0.33869 0-0.5862 0.23448-0.23448 0.23448-0.24751 0.57317v7.2298q0 0.3387 0.24751 0.5862 0.24751 0.23448 0.5862 0.23448h0.16935v0.13027h-2.8528v-0.13027z"/>
    <path d="m65.439 191.46q-0.32567 0-0.56015 0.23448-0.23448 0.22145-0.24751 0.54712v6.7218q0 0.75555 0.09119 1.4329l0.02605 0.23449h-0.11724l-7.0996-7.5815v6.4873q0.01303 0.45594 0.40383 0.67739 0.18237 0.10421 0.3908 0.10421h0.24751v0.13027h-2.6835v-0.13027h0.24751q0.32567 0 0.56015-0.22145 0.23448-0.23448 0.23448-0.57317v-6.7609q0-0.79463-0.09119-1.4199l-0.02605-0.20843h0.13027l7.0996 7.5815v-6.4612q-0.01303-0.3387-0.24751-0.56015-0.23448-0.23448-0.56015-0.23448h-0.24751v-0.13027h2.6835v0.13027z"/>
    <path d="m71.34 191.33q2.0843 0 3.3739 1.2636 1.3027 1.2506 1.3027 3.2958 0 2.0452-1.3027 3.3088-1.2896 1.2506-3.3739 1.2506h-4.4161v-0.13027h0.16935q0.33869 0 0.57317-0.23448 0.24751-0.2475 0.26053-0.5862v-7.295q0-0.31264-0.26053-0.52107-0.24751-0.22145-0.57317-0.22145h-0.15632l-0.01303-0.13027zm-2.5663 0.3908v8.3371h2.5663q1.0942 0 1.928-0.52107 0.84674-0.52107 1.3027-1.459 0.46896-0.95095 0.46896-2.1885 0-1.8758-1.0291-3.0222-1.0161-1.1464-2.6705-1.1464z"/>
    <path d="m78.852 192.47q1.3027-1.3157 3.3869-1.3157t3.3869 1.3157q1.3027 1.3027 1.3027 3.426 0 2.1234-1.3027 3.439-1.3027 1.3027-3.3869 1.3027t-3.3869-1.3027q-1.2896-1.3157-1.2896-3.439 0-2.1234 1.2896-3.426zm0.71647 6.5785q1.0161 1.1984 2.6705 1.1984 1.6674 0 2.6705-1.1984 1.0161-1.1985 1.0161-3.1525 0-1.2896-0.45594-2.2797-0.45593-0.99003-1.3027-1.5241-0.83371-0.54712-1.928-0.54712-1.6544 0-2.6705 1.1985-1.0031 1.1984-1.0031 3.1525 0 1.954 1.0031 3.1525z"/>
    <path d="m88.008 196.65 0.07816-0.28659h3.908l0.07816 0.28659-0.07816 0.29961h-3.908z"/>
    <path d="m104.25 200.32h0.20842v0.13027h-2.8268v-0.11724h0.1954q0.22145 0 0.37777-0.16935 0.15632-0.18237 0.13027-0.3908l-0.5862-6.5524-2.7356 6.0835q-0.36475 0.79463-0.44291 1.3287h-0.13027l-3.3348-7.2298-0.56015 6.37q-0.02605 0.20843 0.13027 0.3908 0.15632 0.16935 0.36475 0.16935h0.20843v0.11724h-2.5272v-0.13027h0.20843q0.36475 0 0.62528-0.22145 0.27356-0.22145 0.32567-0.59923l0.977-8.3501h0.13027l3.6344 7.8551 3.5563-7.8551h0.11724l1.0031 8.3501q0.0651 0.52107 0.52106 0.7295 0.19541 0.0912 0.42989 0.0912z"/>
    <path d="m105.61 200.32q0.33869 0 0.57317-0.23448 0.24751-0.2475 0.26054-0.5862v-7.295q-0.0391-0.31264-0.27356-0.52107-0.23448-0.22145-0.56015-0.22145h-0.15632l-0.013-0.13027h3.8168q0.40383 0 0.87279-0.0782 0.48199-0.0782 0.67739-0.15632v1.6414h-0.13027v-0.23449q0-0.31264-0.22145-0.53409-0.20843-0.22145-0.50804-0.23448h-2.6574v4.0252h2.2015q0.26053-0.013 0.4429-0.1954 0.18238-0.18237 0.18238-0.45594v-0.18237h0.13026v2.0582h-0.13026v-0.1954q0-0.26053-0.18238-0.44291-0.16934-0.18237-0.42988-0.1954h-2.2145v3.895h1.8628q0.96398 0 1.472-0.42988t0.84673-1.2766h0.13027l-0.75555 2.1103h-5.4061v-0.13027z"/>
    <path d="m117.24 191.33q2.0843 0 3.3739 1.2636 1.3027 1.2506 1.3027 3.2958 0 2.0452-1.3027 3.3088-1.2896 1.2506-3.3739 1.2506h-4.4161v-0.13027h0.16935q0.3387 0 0.57318-0.23448 0.2475-0.2475 0.26053-0.5862v-7.295q0-0.31264-0.26053-0.52107-0.24751-0.22145-0.57318-0.22145h-0.15632l-0.013-0.13027zm-2.5663 0.3908v8.3371h2.5663q1.0942 0 1.928-0.52107 0.84673-0.52107 1.3027-1.459 0.46896-0.95095 0.46896-2.1885 0-1.8758-1.0291-3.0222-1.0161-1.1464-2.6705-1.1464z"/>
   </g>
   <g fill="#808080" stroke-width=".16418" aria-label="Mediterranes Olivenholz">
    <path d="m60.684 204.48v3.0396h-0.3083v-2.4317l-1.1941 2.0452h-0.15198l-1.1941-2.0322v2.4186h-0.3083v-3.0396h0.26488l1.32 2.2536 1.307-2.2536z"/>
    <path d="m63.887 206.48h-1.9106q0.02605 0.35606 0.27356 0.57751 0.24751 0.21712 0.62528 0.21712 0.21277 0 0.3908-0.0738 0.17803-0.0782 0.3083-0.2258l0.17369 0.19974q-0.15198 0.18238-0.38212 0.27791-0.2258 0.0955-0.49936 0.0955-0.35172 0-0.62528-0.14764-0.26922-0.15198-0.4212-0.41685-0.15198-0.26488-0.15198-0.59923 0-0.33436 0.14329-0.59923 0.14764-0.26488 0.39949-0.41252 0.25619-0.14763 0.57318-0.14763 0.31698 0 0.56883 0.14763 0.25185 0.14764 0.39514 0.41252 0.14329 0.26053 0.14329 0.59923zm-1.1029-0.99004q-0.33001 0-0.55581 0.21277-0.22145 0.20843-0.25185 0.54713h1.6197q-0.0304-0.3387-0.25619-0.54713-0.22145-0.21277-0.55581-0.21277z"/>
    <path d="m66.891 204.3v3.222h-0.29527v-0.4516q-0.13895 0.23014-0.36909 0.35172-0.2258 0.12159-0.51238 0.12159-0.32132 0-0.58186-0.14764-0.26053-0.14764-0.40817-0.41251-0.14764-0.26488-0.14764-0.60357 0-0.3387 0.14764-0.60358 0.14764-0.26487 0.40817-0.40817 0.26054-0.14763 0.58186-0.14763 0.2779 0 0.49936 0.11724 0.2258 0.1129 0.36909 0.33435v-1.3722zm-1.1507 2.9701q0.23882 0 0.42988-0.10856 0.1954-0.1129 0.30396-0.31698 0.1129-0.20409 0.1129-0.46462 0-0.26054-0.1129-0.46462-0.10856-0.20409-0.30396-0.31264-0.19106-0.1129-0.42988-0.1129-0.24317 0-0.43857 0.1129-0.19106 0.10855-0.30396 0.31264-0.10856 0.20408-0.10856 0.46462 0 0.26053 0.10856 0.46462 0.1129 0.20408 0.30396 0.31698 0.1954 0.10856 0.43857 0.10856z"/>
    <path d="m68.038 205.24h0.3083v2.284h-0.3083zm0.15632-0.49936q-0.09553 0-0.16066-0.0651-0.06513-0.0651-0.06513-0.15632 0-0.0868 0.06513-0.15198 0.06513-0.0651 0.16066-0.0651 0.09553 0 0.16066 0.0651 0.06513 0.0608 0.06513 0.14763 0 0.0955-0.06513 0.16067-0.06513 0.0651-0.16066 0.0651z"/>
    <path d="m70.699 207.39q-0.08684 0.0782-0.21711 0.12159-0.12592 0.0391-0.26488 0.0391-0.32133 0-0.49502-0.17369-0.17369-0.17369-0.17369-0.49068v-1.3808h-0.40817v-0.26053h0.40817v-0.49936h0.3083v0.49936h0.69476v0.26053h-0.69476v1.3635q0 0.20409 0.09987 0.31265 0.10421 0.10421 0.29527 0.10421 0.09553 0 0.18237-0.0304 0.09119-0.0304 0.15632-0.0868z"/>
    <path d="m73.453 206.48h-1.9106q0.02605 0.35606 0.27356 0.57751 0.24751 0.21712 0.62528 0.21712 0.21277 0 0.3908-0.0738 0.17803-0.0782 0.3083-0.2258l0.17369 0.19974q-0.15198 0.18238-0.38212 0.27791-0.2258 0.0955-0.49936 0.0955-0.35172 0-0.62528-0.14764-0.26922-0.15198-0.4212-0.41685-0.15198-0.26488-0.15198-0.59923 0-0.33436 0.14329-0.59923 0.14764-0.26488 0.39949-0.41252 0.25619-0.14763 0.57318-0.14763 0.31698 0 0.56883 0.14763 0.25185 0.14764 0.39514 0.41252 0.14329 0.26053 0.14329 0.59923zm-1.1029-0.99004q-0.33001 0-0.55581 0.21277-0.22145 0.20843-0.25185 0.54713h1.6197q-0.0304-0.3387-0.25619-0.54713-0.22145-0.21277-0.55581-0.21277z"/>
    <path d="m74.668 205.69q0.10856-0.23014 0.32133-0.34738 0.21711-0.11724 0.5341-0.11724v0.29961l-0.07382-4e-3q-0.36041 0-0.56449 0.22145-0.20408 0.22146-0.20408 0.62094v1.1637h-0.3083v-2.284h0.29527z"/>
    <path d="m76.661 205.69q0.10856-0.23014 0.32133-0.34738 0.21711-0.11724 0.5341-0.11724v0.29961l-0.07382-4e-3q-0.36041 0-0.56449 0.22145-0.20408 0.22146-0.20408 0.62094v1.1637h-0.3083v-2.284h0.29527z"/>
    <path d="m79.149 205.22q0.44725 0 0.68607 0.22579 0.23882 0.22146 0.23882 0.66002v1.4156h-0.29527v-0.35607q-0.10421 0.17803-0.3083 0.2779-0.19974 0.0999-0.47765 0.0999-0.38212 0-0.60791-0.18238-0.2258-0.18237-0.2258-0.48199 0-0.29093 0.20843-0.46896 0.21277-0.17803 0.67305-0.17803h0.72515v-0.13895q0-0.29527-0.165-0.44725-0.165-0.15632-0.48199-0.15632-0.21711 0-0.41686 0.0738-0.19974 0.0695-0.34304 0.1954l-0.13895-0.23014q0.17369-0.14764 0.41686-0.2258 0.24316-0.0825 0.51238-0.0825zm-0.10856 2.0799q0.26053 0 0.44725-0.11724 0.18672-0.12158 0.2779-0.34738v-0.37343h-0.71647q-0.5862 0-0.5862 0.40817 0 0.19974 0.15198 0.31698 0.15198 0.1129 0.42554 0.1129z"/>
    <path d="m82.364 205.22q0.42988 0 0.68173 0.25185 0.25619 0.24751 0.25619 0.72515v1.3244h-0.3083v-1.294q0-0.35607-0.17803-0.54278-0.17803-0.18672-0.50804-0.18672-0.36909 0-0.5862 0.22146-0.21277 0.21711-0.21277 0.60357v1.1985h-0.3083v-2.284h0.29527v0.42119q0.12592-0.20842 0.34738-0.32132 0.2258-0.11724 0.52107-0.11724z"/>
    <path d="m86.428 206.48h-1.9106q0.02605 0.35606 0.27356 0.57751 0.24751 0.21712 0.62528 0.21712 0.21277 0 0.3908-0.0738 0.17803-0.0782 0.3083-0.2258l0.17369 0.19974q-0.15198 0.18238-0.38212 0.27791-0.2258 0.0955-0.49936 0.0955-0.35172 0-0.62528-0.14764-0.26922-0.15198-0.4212-0.41685-0.15198-0.26488-0.15198-0.59923 0-0.33436 0.14329-0.59923 0.14764-0.26488 0.39949-0.41252 0.25619-0.14763 0.57318-0.14763 0.31698 0 0.56883 0.14763 0.25185 0.14764 0.39514 0.41252 0.14329 0.26053 0.14329 0.59923zm-1.1029-0.99004q-0.33001 0-0.55581 0.21277-0.22146 0.20843-0.25185 0.54713h1.6197q-0.0304-0.3387-0.25619-0.54713-0.22145-0.21277-0.55581-0.21277z"/>
    <path d="m87.961 207.55q-0.2779 0-0.5341-0.0782-0.25185-0.0825-0.39514-0.20409l0.13895-0.24316q0.14329 0.11289 0.36041 0.18671 0.21711 0.0695 0.45159 0.0695 0.31264 0 0.46028-0.0955 0.15198-0.0999 0.15198-0.27791 0-0.12592-0.0825-0.1954-0.0825-0.0738-0.20843-0.10855-0.12592-0.0391-0.33435-0.0738-0.2779-0.0521-0.44725-0.10421-0.16935-0.0564-0.29093-0.18672-0.11724-0.13027-0.11724-0.36041 0-0.28658 0.23882-0.46896 0.23882-0.18237 0.66436-0.18237 0.22145 0 0.44291 0.0608 0.22145 0.0564 0.36475 0.15198l-0.13461 0.24751q-0.28224-0.19541-0.67305-0.19541-0.29527 0-0.44725 0.10422-0.14764 0.10421-0.14764 0.27356 0 0.13027 0.0825 0.20843 0.08684 0.0782 0.21277 0.11724 0.12592 0.0347 0.34738 0.0738 0.27356 0.0521 0.43857 0.10421 0.165 0.0521 0.28225 0.17803 0.11724 0.12593 0.11724 0.34738 0 0.29961-0.25185 0.47765-0.24751 0.17369-0.69042 0.17369z"/>
    <path d="m92.575 207.55q-0.45159 0-0.82068-0.19974-0.36475-0.20409-0.57318-0.55581-0.20408-0.35172-0.20408-0.79029 0-0.43856 0.20408-0.79029 0.20843-0.35172 0.57318-0.55146 0.36909-0.20409 0.82068-0.20409t0.812 0.19975q0.36475 0.19974 0.57318 0.5558 0.20843 0.35173 0.20843 0.79029 0 0.43857-0.20843 0.79463-0.20843 0.35172-0.57318 0.55147-0.36041 0.19974-0.812 0.19974zm0-0.28659q0.36041 0 0.65134-0.16066 0.29093-0.16501 0.45594-0.4516 0.165-0.29093 0.165-0.64699t-0.165-0.64265q-0.165-0.29093-0.45594-0.45159-0.29093-0.16501-0.65134-0.16501t-0.65568 0.16501q-0.29093 0.16066-0.46028 0.45159-0.165 0.28659-0.165 0.64265t0.165 0.64699q0.16935 0.28659 0.46028 0.4516 0.29527 0.16066 0.65568 0.16066z"/>
    <path d="m95.117 204.3h0.3083v3.222h-0.3083z"/>
    <path d="m96.575 205.24h0.3083v2.284h-0.3083zm0.15632-0.49936q-0.09553 0-0.16066-0.0651-0.06513-0.0651-0.06513-0.15632 0-0.0868 0.06513-0.15198 0.06513-0.0651 0.16066-0.0651 0.09553 0 0.16066 0.0651 0.06513 0.0608 0.06513 0.14763 0 0.0955-0.06513 0.16067-0.06513 0.0651-0.16066 0.0651z"/>
    <path d="m99.953 205.24-1.0161 2.284h-0.31698l-1.0117-2.284h0.32133l0.85542 1.9453 0.86411-1.9453z"/>
    <path d="m102.6 206.48h-1.9106q0.026 0.35606 0.27356 0.57751 0.24751 0.21712 0.62528 0.21712 0.21277 0 0.3908-0.0738 0.17804-0.0782 0.3083-0.2258l0.17369 0.19974q-0.15198 0.18238-0.38211 0.27791-0.2258 0.0955-0.49936 0.0955-0.35172 0-0.62528-0.14764-0.26922-0.15198-0.4212-0.41685-0.15198-0.26488-0.15198-0.59923 0-0.33436 0.14329-0.59923 0.14764-0.26488 0.39949-0.41252 0.25619-0.14763 0.57318-0.14763 0.31698 0 0.56883 0.14763 0.25185 0.14764 0.39514 0.41252 0.1433 0.26053 0.1433 0.59923zm-1.1029-0.99004q-0.33001 0-0.55581 0.21277-0.22146 0.20843-0.25185 0.54713h1.6196q-0.0304-0.3387-0.25619-0.54713-0.22145-0.21277-0.5558-0.21277z"/>
    <path d="m104.68 205.22q0.42988 0 0.68173 0.25185 0.25619 0.24751 0.25619 0.72515v1.3244h-0.3083v-1.294q0-0.35607-0.17803-0.54278-0.17803-0.18672-0.50804-0.18672-0.36909 0-0.5862 0.22146-0.21277 0.21711-0.21277 0.60357v1.1985h-0.3083v-2.284h0.29527v0.42119q0.12593-0.20842 0.34738-0.32132 0.2258-0.11724 0.52107-0.11724z"/>
    <path d="m107.92 205.22q0.42988 0 0.68173 0.25185 0.2562 0.24751 0.2562 0.72515v1.3244h-0.3083v-1.294q0-0.35607-0.17804-0.54278-0.17803-0.18672-0.50804-0.18672-0.36909 0-0.5862 0.22146-0.21277 0.21711-0.21277 0.60357v1.1985h-0.3083v-3.222h0.3083v1.3374q0.12593-0.19974 0.34738-0.3083 0.22145-0.10855 0.50804-0.10855z"/>
    <path d="m110.93 207.55q-0.33001 0-0.59489-0.14764-0.26487-0.15198-0.41685-0.41685-0.15198-0.26488-0.15198-0.59923 0-0.33436 0.15198-0.59923 0.15198-0.26488 0.41685-0.41252 0.26488-0.14763 0.59489-0.14763t0.59489 0.14763q0.26487 0.14764 0.41251 0.41252 0.15198 0.26487 0.15198 0.59923 0 0.33435-0.15198 0.59923-0.14764 0.26487-0.41251 0.41685-0.26488 0.14764-0.59489 0.14764zm0-0.27356q0.24317 0 0.43422-0.10856 0.1954-0.1129 0.30396-0.31698 0.10856-0.20409 0.10856-0.46462 0-0.26054-0.10856-0.46462-0.10856-0.20409-0.30396-0.31264-0.19105-0.1129-0.43422-0.1129t-0.43857 0.1129q-0.19106 0.10855-0.30395 0.31264-0.10856 0.20408-0.10856 0.46462 0 0.26053 0.10856 0.46462 0.11289 0.20408 0.30395 0.31698 0.1954 0.10856 0.43857 0.10856z"/>
    <path d="m113 204.3h0.3083v3.222h-0.3083z"/>
    <path d="m116.07 207.27v0.2562h-1.8585v-0.20409l1.4373-1.8194h-1.4112v-0.26053h1.8064v0.20408l-1.4373 1.8237z"/>
   </g>
  </g>
 </g>
</svg>
